<svg width="75" height="37" viewBox="0 0 75 37" fill="none" xmlns="http://www.w3.org/2000/svg">
<path d="M7.2592 20.1156C6.34684 20.1156 5.47415 19.8758 4.64112 19.3961C4.22461 19.1563 3.81802 18.8765 3.42134 18.5567C3.02466 18.217 2.64782 17.8273 2.29081 17.3876C1.9338 16.9279 1.60654 16.4283 1.30904 15.8886C1.03136 15.329 0.793355 14.7395 0.595016 14.1199C0.198339 12.8208 0 11.4118 0 9.89293C0 8.37402 0.198339 6.98501 0.595016 5.72591C0.793355 5.10635 1.03136 4.53676 1.30904 4.01713C1.60654 3.4975 1.92389 3.02784 2.26106 2.60814C2.93541 1.76874 3.71885 1.1192 4.61137 0.659529C5.46423 0.219843 6.34684 0 7.2592 0C8.17155 0 9.05416 0.219843 9.90702 0.659529C10.7995 1.1192 11.583 1.76874 12.2573 2.60814C12.5945 3.02784 12.9019 3.4975 13.1796 4.01713C13.4771 4.53676 13.725 5.10635 13.9234 5.72591C14.3201 6.98501 14.5184 8.37402 14.5184 9.89293C14.5184 11.4318 14.3101 12.8508 13.8936 14.1499C13.4771 15.449 12.9218 16.5382 12.2276 17.4176C11.8904 17.8572 11.5235 18.237 11.1268 18.5567C10.75 18.8765 10.3434 19.1563 9.90702 19.3961C9.05416 19.8758 8.17155 20.1156 7.2592 20.1156ZM7.2592 18.7066C8.5484 18.7066 9.193 16.818 9.193 13.0407V6.53533C9.193 5.77587 9.15333 5.08637 9.07399 4.46681C8.99466 3.82727 8.87566 3.25767 8.71698 2.75803C8.37981 1.75874 7.89388 1.2591 7.2592 1.2591C6.62451 1.2591 6.13858 1.75874 5.80141 2.75803C5.48406 3.71735 5.32539 4.97645 5.32539 6.53533V13.0407C5.32539 16.818 5.96999 18.7066 7.2592 18.7066Z" fill="#6B6B6B"/>
<path d="M27.1385 17.8672C27.1385 18.6867 27.0592 19.2263 26.9005 19.4861C26.7419 19.7459 26.4344 19.8758 25.9783 19.8758H18.0943C17.5389 19.8758 17.2613 19.626 17.2613 19.1263V6.83512C17.2613 6.4354 17.4199 6.23555 17.7373 6.23555H25.532C25.9088 6.23555 26.1667 6.3055 26.3055 6.4454C26.4444 6.5853 26.5138 6.81513 26.5138 7.1349C26.5138 7.37473 26.4146 7.6945 26.2163 8.09422C26.1171 8.29408 26.0378 8.48394 25.9783 8.66381C25.9386 8.84368 25.8989 9.00357 25.8593 9.14347C25.8394 9.40328 25.7898 9.63312 25.7105 9.83298C25.651 10.0128 25.5816 10.1827 25.5022 10.3426C25.3436 10.6624 25.1849 10.8223 25.0262 10.8223C24.5899 10.8223 24.104 10.1927 23.5684 8.93362C23.4098 8.55389 23.1123 8.17416 22.6759 7.79443C22.2792 7.45468 21.8826 7.2848 21.4859 7.2848C21.2875 7.2848 21.1586 7.39472 21.0991 7.61456C21.0793 7.73447 21.0595 7.88437 21.0396 8.06424C21.0396 8.22413 21.0396 8.42398 21.0396 8.66381V12.651C22.071 12.651 23.0726 12.8508 24.0445 13.2505C24.9766 13.6303 25.7204 14.2198 26.2758 15.0193C26.8509 15.8387 27.1385 16.788 27.1385 17.8672ZM23.4494 17.9872C23.4494 16.788 23.3503 15.8787 23.1519 15.2591C22.9536 14.6395 22.6759 14.2098 22.3189 13.97C22.0016 13.7502 21.5751 13.6403 21.0396 13.6403V18.9764C21.7933 18.9764 22.3784 18.9065 22.7949 18.7666C23.2313 18.6267 23.4494 18.3669 23.4494 17.9872Z" fill="#6B6B6B"/>
<path d="M38.627 15.9186C39.0038 15.9186 39.2418 15.9886 39.341 16.1285C39.46 16.2484 39.5195 16.5082 39.5195 16.9079C39.5195 17.6074 39.3113 18.197 38.8948 18.6767C38.4782 19.1563 38.0121 19.5261 37.4965 19.7859C36.8618 20.1056 36.0188 20.2655 34.9676 20.2655C33.6388 20.2655 32.5479 19.9258 31.6951 19.2463C30.8422 18.5467 30.2174 17.6974 29.8208 16.6981C29.3844 15.6188 29.1662 14.4397 29.1662 13.1606C29.1662 11.5617 29.4836 10.1827 30.1183 9.02355C30.753 7.86438 31.5959 7.005 32.6471 6.4454C33.4008 6.04568 34.2239 5.84582 35.1164 5.84582C35.9296 5.84582 36.6436 6.0157 37.2585 6.35546C37.8733 6.69522 38.3493 7.11492 38.6865 7.61456C39.0237 8.1142 39.1923 8.63383 39.1923 9.17345C39.1923 9.79301 39.0534 10.1028 38.7757 10.1028C38.7757 10.1028 38.7658 10.1028 38.746 10.1028H36.3064C36.0288 10.1028 35.8403 10.0428 35.7412 9.92291C35.642 9.803 35.5924 9.60314 35.5924 9.32334C35.5924 7.9843 35.3147 7.31477 34.7594 7.31477C34.4024 7.31477 34.0553 7.57459 33.7181 8.09422C33.4008 8.59386 33.2421 9.49322 33.2421 10.7923C33.2421 11.7516 33.5198 12.2313 34.0751 12.2313H37.675C38.389 12.2313 38.746 12.4911 38.746 13.0107C38.746 13.3305 38.6567 13.5503 38.4782 13.6702C38.3196 13.7702 38.0716 13.8201 37.7345 13.8201H33.8966C33.6388 13.8201 33.4603 13.96 33.3611 14.2398C33.2818 14.5196 33.2421 14.8194 33.2421 15.1392C33.2421 16.5382 33.3611 17.5275 33.5991 18.1071C33.8371 18.6867 34.214 18.9764 34.7296 18.9764C35.3247 18.9764 35.6222 18.4568 35.6222 17.4176C35.6222 16.4183 35.88 15.9186 36.3957 15.9186H38.627Z" fill="#6B6B6B"/>
<path d="M51.6541 14.3597C51.6541 15.1792 51.5054 16.0585 51.2079 16.9979C50.9104 17.9172 50.4938 18.6966 49.9583 19.3362C49.4228 19.9557 48.8377 20.2655 48.203 20.2655C47.2312 20.2655 46.5271 19.9557 46.0907 19.3362C45.8527 19.7759 45.704 20.2256 45.6445 20.6852C45.6246 20.9051 45.5949 21.1849 45.5552 21.5246C45.5354 21.8644 45.5155 22.2441 45.4957 22.6638C45.4759 22.9236 45.466 23.1834 45.466 23.4433C45.466 23.7231 45.456 23.9829 45.4362 24.2227C45.4164 24.4625 45.4065 24.7123 45.4065 24.9722C45.4065 25.252 45.3866 25.5517 45.347 25.8715C45.228 27.2905 44.9899 28 44.6329 28C44.2958 28 44.0379 27.8001 43.8594 27.4004C43.6611 26.9807 43.4925 26.3312 43.3537 25.4518C43.3338 25.2719 43.3041 25.0421 43.2644 24.7623C43.2247 24.5025 43.1851 24.1927 43.1454 23.833C43.1057 23.4732 43.0561 23.1435 42.9966 22.8437C42.957 22.5639 42.9173 22.3241 42.8776 22.1242C42.8578 21.9044 42.8181 21.6745 42.7586 21.4347C42.719 21.1949 42.6793 20.945 42.6396 20.6852C42.5008 19.9058 42.3818 19.1963 42.2826 18.5567C42.1835 17.9172 42.1041 17.3376 42.0446 16.818C41.9256 15.7587 41.8661 14.5196 41.8661 13.1006C41.8661 12.0014 42.0545 10.8922 42.4314 9.77302C42.8082 8.65382 43.2545 7.71449 43.7702 6.95503C44.266 6.21556 44.6924 5.84582 45.0494 5.84582C45.6643 5.84582 46.5072 6.25553 47.5783 7.07495C48.1336 7.49465 48.6394 7.9743 49.0956 8.51392C49.5716 9.05353 50.0178 9.64311 50.4343 10.2827C51.2475 11.5418 51.6541 12.9008 51.6541 14.3597ZM47.7865 14.9893C47.7865 13.2305 47.6973 11.9015 47.5188 11.0021C47.4394 10.5425 47.3601 10.1727 47.2808 9.89293C47.2014 9.59315 47.1122 9.3833 47.013 9.26338C46.894 9.08351 46.7155 8.99358 46.4775 8.99358C46.1205 9.77302 45.8825 10.4625 45.7635 11.0621C45.6445 11.6617 45.585 12.561 45.585 13.7602C45.585 14.5796 45.6147 15.2491 45.6742 15.7687C45.7337 16.2684 45.8527 16.8779 46.0312 17.5974C46.1304 17.9572 46.2692 18.247 46.4477 18.4668C46.6461 18.6867 46.8642 18.7966 47.1023 18.7966C47.2808 18.7966 47.4097 18.7166 47.489 18.5567C47.5882 18.3569 47.6675 17.9772 47.727 17.4176C47.7667 17.1378 47.7865 16.798 47.7865 16.3983C47.7865 15.9786 47.7865 15.5089 47.7865 14.9893Z" fill="#6B6B6B"/>
<path d="M63.5259 15.9186C63.9027 15.9186 64.1407 15.9886 64.2399 16.1285C64.3589 16.2484 64.4184 16.5082 64.4184 16.9079C64.4184 17.6074 64.2101 18.197 63.7936 18.6767C63.3771 19.1563 62.911 19.5261 62.3953 19.7859C61.7606 20.1056 60.9177 20.2655 59.8665 20.2655C58.5376 20.2655 57.4468 19.9258 56.5939 19.2463C55.7411 18.5467 55.1163 17.6974 54.7196 16.6981C54.2833 15.6188 54.0651 14.4397 54.0651 13.1606C54.0651 11.5617 54.3824 10.1827 55.0171 9.02355C55.6518 7.86438 56.4948 7.005 57.5459 6.4454C58.2996 6.04568 59.1227 5.84582 60.0153 5.84582C60.8285 5.84582 61.5425 6.0157 62.1573 6.35546C62.7722 6.69522 63.2482 7.11492 63.5854 7.61456C63.9225 8.1142 64.0911 8.63383 64.0911 9.17345C64.0911 9.79301 63.9523 10.1028 63.6746 10.1028C63.6746 10.1028 63.6647 10.1028 63.6449 10.1028H61.2053C60.9276 10.1028 60.7392 10.0428 60.64 9.92291C60.5409 9.803 60.4913 9.60314 60.4913 9.32334C60.4913 7.9843 60.2136 7.31477 59.6583 7.31477C59.3012 7.31477 58.9541 7.57459 58.617 8.09422C58.2996 8.59386 58.141 9.49322 58.141 10.7923C58.141 11.7516 58.4186 12.2313 58.974 12.2313H62.5738C63.2879 12.2313 63.6449 12.4911 63.6449 13.0107C63.6449 13.3305 63.5556 13.5503 63.3771 13.6702C63.2184 13.7702 62.9705 13.8201 62.6333 13.8201H58.7955C58.5376 13.8201 58.3591 13.96 58.26 14.2398C58.1806 14.5196 58.141 14.8194 58.141 15.1392C58.141 16.5382 58.26 17.5275 58.498 18.1071C58.736 18.6867 59.1128 18.9764 59.6285 18.9764C60.2235 18.9764 60.521 18.4568 60.521 17.4176C60.521 16.4183 60.7789 15.9186 61.2946 15.9186H63.5259Z" fill="#6B6B6B"/>
<path d="M74.2622 6.23555C74.52 6.23555 74.6886 6.27552 74.7679 6.35546C74.8869 6.47537 74.9564 6.59529 74.9762 6.7152C75.0159 6.87509 75.0059 6.98501 74.9464 7.04497C74.8671 7.2848 74.7481 8.04425 74.5894 9.32334C74.4903 10.3226 74.401 11.0621 74.3217 11.5418C74.2423 12.0014 74.1134 12.2313 73.9349 12.2313C73.4787 12.2313 73.1316 11.4118 72.8936 9.77302C72.6556 8.15418 72.0904 7.34475 71.1978 7.34475C70.8607 7.34475 70.6921 7.90435 70.6921 9.02355V19.1563C70.6921 19.636 70.464 19.8758 70.0078 19.8758H67.5385C67.122 19.8758 66.9137 19.626 66.9137 19.1263V6.98501C66.9137 6.70521 66.9633 6.51535 67.0625 6.41542C67.1815 6.2955 67.3897 6.23555 67.6872 6.23555H74.2622Z" fill="#6B6B6B"/>
<path d="M1.605 26.025C1.345 26.025 1.11167 25.9683 0.905 25.855C0.701667 25.7383 0.541667 25.58 0.425 25.38C0.308333 25.1767 0.25 24.945 0.25 24.685C0.25 24.4217 0.308333 24.19 0.425 23.99C0.541667 23.79 0.701667 23.6333 0.905 23.52C1.11167 23.4067 1.345 23.35 1.605 23.35C1.82833 23.35 2.03 23.3933 2.21 23.48C2.39 23.5667 2.53167 23.6967 2.635 23.87L2.37 24.05C2.28 23.9167 2.16833 23.8183 2.035 23.755C1.90167 23.6917 1.75667 23.66 1.6 23.66C1.41333 23.66 1.245 23.7033 1.095 23.79C0.945 23.8733 0.826667 23.9917 0.74 24.145C0.653333 24.2983 0.61 24.4783 0.61 24.685C0.61 24.8917 0.653333 25.0717 0.74 25.225C0.826667 25.3783 0.945 25.4983 1.095 25.585C1.245 25.6683 1.41333 25.71 1.6 25.71C1.75667 25.71 1.90167 25.6783 2.035 25.615C2.16833 25.5517 2.28 25.455 2.37 25.325L2.635 25.505C2.53167 25.675 2.39 25.805 2.21 25.895C2.03 25.9817 1.82833 26.025 1.605 26.025Z" fill="#6B6B6B"/>
<path d="M3.77355 26V23.59L3.86355 23.685H2.77855V23.375H5.12355V23.685H4.03855L4.12855 23.59V26H3.77355Z" fill="#6B6B6B"/>
<path d="M6.99184 26.025C6.76517 26.025 6.56017 25.9733 6.37684 25.87C6.1935 25.7633 6.04684 25.6117 5.93684 25.415C5.83017 25.215 5.77684 24.9717 5.77684 24.685C5.77684 24.3983 5.83017 24.1567 5.93684 23.96C6.0435 23.76 6.1885 23.6083 6.37184 23.505C6.55517 23.4017 6.76184 23.35 6.99184 23.35C7.24184 23.35 7.46517 23.4067 7.66184 23.52C7.86184 23.63 8.0185 23.7867 8.13184 23.99C8.24517 24.19 8.30184 24.4217 8.30184 24.685C8.30184 24.9517 8.24517 25.185 8.13184 25.385C8.0185 25.585 7.86184 25.7417 7.66184 25.855C7.46517 25.9683 7.24184 26.025 6.99184 26.025ZM5.63684 26.97V23.375H5.97684V24.165L5.94184 24.69L5.99184 25.22V26.97H5.63684ZM6.96684 25.71C7.1535 25.71 7.32017 25.6683 7.46684 25.585C7.6135 25.4983 7.73017 25.3783 7.81684 25.225C7.9035 25.0683 7.94684 24.8883 7.94684 24.685C7.94684 24.4817 7.9035 24.3033 7.81684 24.15C7.73017 23.9967 7.6135 23.8767 7.46684 23.79C7.32017 23.7033 7.1535 23.66 6.96684 23.66C6.78017 23.66 6.61184 23.7033 6.46184 23.79C6.31517 23.8767 6.1985 23.9967 6.11184 24.15C6.0285 24.3033 5.98684 24.4817 5.98684 24.685C5.98684 24.8883 6.0285 25.0683 6.11184 25.225C6.1985 25.3783 6.31517 25.4983 6.46184 25.585C6.61184 25.6683 6.78017 25.71 6.96684 25.71Z" fill="#6B6B6B"/>
<path d="M10.1446 26.025C9.89124 26.025 9.6629 25.9683 9.45957 25.855C9.25957 25.7383 9.10124 25.58 8.98457 25.38C8.8679 25.1767 8.80957 24.945 8.80957 24.685C8.80957 24.4217 8.8679 24.19 8.98457 23.99C9.10124 23.79 9.25957 23.6333 9.45957 23.52C9.65957 23.4067 9.8879 23.35 10.1446 23.35C10.4046 23.35 10.6346 23.4067 10.8346 23.52C11.0379 23.6333 11.1962 23.79 11.3096 23.99C11.4262 24.19 11.4846 24.4217 11.4846 24.685C11.4846 24.945 11.4262 25.1767 11.3096 25.38C11.1962 25.58 11.0379 25.7383 10.8346 25.855C10.6312 25.9683 10.4012 26.025 10.1446 26.025ZM10.1446 25.71C10.3346 25.71 10.5029 25.6683 10.6496 25.585C10.7962 25.4983 10.9112 25.3783 10.9946 25.225C11.0812 25.0683 11.1246 24.8883 11.1246 24.685C11.1246 24.4783 11.0812 24.2983 10.9946 24.145C10.9112 23.9917 10.7962 23.8733 10.6496 23.79C10.5029 23.7033 10.3362 23.66 10.1496 23.66C9.9629 23.66 9.79624 23.7033 9.64957 23.79C9.5029 23.8733 9.38624 23.9917 9.29957 24.145C9.2129 24.2983 9.16957 24.4783 9.16957 24.685C9.16957 24.8883 9.2129 25.0683 9.29957 25.225C9.38624 25.3783 9.5029 25.4983 9.64957 25.585C9.79624 25.6683 9.96124 25.71 10.1446 25.71Z" fill="#6B6B6B"/>
<path d="M12.2433 26V23.375H12.5983V25.46L14.3533 23.375H14.6683V26H14.3133V23.91L12.5633 26H12.2433Z" fill="#6B6B6B"/>
<path d="M16.1857 26V23.59L16.2757 23.685H15.1907V23.375H17.5357V23.685H16.4507L16.5407 23.59V26H16.1857Z" fill="#6B6B6B"/>
<path d="M19.0519 26.025C18.7785 26.025 18.5385 25.9683 18.3319 25.855C18.1252 25.7383 17.9635 25.58 17.8469 25.38C17.7302 25.1767 17.6719 24.945 17.6719 24.685C17.6719 24.425 17.7269 24.195 17.8369 23.995C17.9502 23.795 18.1035 23.6383 18.2969 23.525C18.4935 23.4083 18.7135 23.35 18.9569 23.35C19.2035 23.35 19.4219 23.4067 19.6119 23.52C19.8052 23.63 19.9569 23.7867 20.0669 23.99C20.1769 24.19 20.2319 24.4217 20.2319 24.685C20.2319 24.7017 20.2302 24.72 20.2269 24.74C20.2269 24.7567 20.2269 24.775 20.2269 24.795H17.9419V24.53H20.0369L19.8969 24.635C19.8969 24.445 19.8552 24.2767 19.7719 24.13C19.6919 23.98 19.5819 23.8633 19.4419 23.78C19.3019 23.6967 19.1402 23.655 18.9569 23.655C18.7769 23.655 18.6152 23.6967 18.4719 23.78C18.3285 23.8633 18.2169 23.98 18.1369 24.13C18.0569 24.28 18.0169 24.4517 18.0169 24.645V24.7C18.0169 24.9 18.0602 25.0767 18.1469 25.23C18.2369 25.38 18.3602 25.4983 18.5169 25.585C18.6769 25.6683 18.8585 25.71 19.0619 25.71C19.2219 25.71 19.3702 25.6817 19.5069 25.625C19.6469 25.5683 19.7669 25.4817 19.8669 25.365L20.0669 25.595C19.9502 25.735 19.8035 25.8417 19.6269 25.915C19.4535 25.9883 19.2619 26.025 19.0519 26.025Z" fill="#6B6B6B"/>
<path d="M20.739 26.03C20.699 26.03 20.6573 26.0267 20.614 26.02C20.574 26.0133 20.5307 26.005 20.484 25.995L20.509 25.69C20.5323 25.6933 20.554 25.6983 20.574 25.705C20.5973 25.7083 20.6173 25.71 20.634 25.71C20.7407 25.71 20.8257 25.67 20.889 25.59C20.9557 25.51 21.0057 25.4033 21.039 25.27C21.0723 25.1367 21.0957 24.9867 21.109 24.82C21.1223 24.65 21.134 24.48 21.144 24.31L21.189 23.375H23.114V26H22.759V23.58L22.849 23.685H21.419L21.504 23.575L21.464 24.335C21.454 24.5617 21.4357 24.7783 21.409 24.985C21.3857 25.1917 21.3473 25.3733 21.294 25.53C21.244 25.6867 21.174 25.81 21.084 25.9C20.994 25.9867 20.879 26.03 20.739 26.03Z" fill="#6B6B6B"/>
<path d="M25.1832 26.005L24.1232 26V23.375H24.4782V24.29L25.2532 24.3C25.5832 24.3033 25.8332 24.3767 26.0032 24.52C26.1765 24.6633 26.2632 24.87 26.2632 25.14C26.2632 25.42 26.1698 25.635 25.9832 25.785C25.7998 25.935 25.5332 26.0083 25.1832 26.005ZM25.1632 25.735C25.4065 25.7383 25.5898 25.69 25.7132 25.59C25.8398 25.4867 25.9032 25.3367 25.9032 25.14C25.9032 24.9433 25.8415 24.8 25.7182 24.71C25.5948 24.6167 25.4098 24.5683 25.1632 24.565L24.4782 24.555V25.725L25.1632 25.735Z" fill="#6B6B6B"/>
<path d="M26.9405 26V23.375H27.2955V24.535H28.9505V23.375H29.3055V26H28.9505V24.84H27.2955V26H26.9405Z" fill="#6B6B6B"/>
<path d="M31.9446 26V25.42L31.9296 25.325V24.355C31.9296 24.1317 31.8662 23.96 31.7396 23.84C31.6162 23.72 31.4312 23.66 31.1846 23.66C31.0146 23.66 30.8529 23.6883 30.6996 23.745C30.5462 23.8017 30.4162 23.8767 30.3096 23.97L30.1496 23.705C30.2829 23.5917 30.4429 23.505 30.6296 23.445C30.8162 23.3817 31.0129 23.35 31.2196 23.35C31.5596 23.35 31.8212 23.435 32.0046 23.605C32.1912 23.7717 32.2846 24.0267 32.2846 24.37V26H31.9446ZM31.0396 26.025C30.8429 26.025 30.6712 25.9933 30.5246 25.93C30.3812 25.8633 30.2712 25.7733 30.1946 25.66C30.1179 25.5433 30.0796 25.41 30.0796 25.26C30.0796 25.1233 30.1112 25 30.1746 24.89C30.2412 24.7767 30.3479 24.6867 30.4946 24.62C30.6446 24.55 30.8446 24.515 31.0946 24.515H31.9996V24.78H31.1046C30.8512 24.78 30.6746 24.825 30.5746 24.915C30.4779 25.005 30.4296 25.1167 30.4296 25.25C30.4296 25.4 30.4879 25.52 30.6046 25.61C30.7212 25.7 30.8846 25.745 31.0946 25.745C31.2946 25.745 31.4662 25.7 31.6096 25.61C31.7562 25.5167 31.8629 25.3833 31.9296 25.21L32.0096 25.455C31.9429 25.6283 31.8262 25.7667 31.6596 25.87C31.4962 25.9733 31.2896 26.025 31.0396 26.025Z" fill="#6B6B6B"/>
<path d="M34.9246 26V25.055L34.9896 25.13H34.0996C33.7629 25.13 33.4996 25.0567 33.3096 24.91C33.1196 24.7633 33.0246 24.55 33.0246 24.27C33.0246 23.97 33.1263 23.7467 33.3296 23.6C33.5329 23.45 33.8046 23.375 34.1446 23.375H35.2496V26H34.9246ZM33.0046 26L33.7246 24.99H34.0946L33.3896 26H33.0046ZM34.9246 24.95V23.58L34.9896 23.685H34.1546C33.9113 23.685 33.7213 23.7317 33.5846 23.825C33.4513 23.9183 33.3846 24.07 33.3846 24.28C33.3846 24.67 33.6329 24.865 34.1296 24.865H34.9896L34.9246 24.95Z" fill="#6B6B6B"/>
<path d="M2.43 31L1.35 29.7L1.645 29.525L2.85 31H2.43ZM0.505 31V28.375H0.86V31H0.505ZM0.75 29.83V29.525H1.595V29.83H0.75ZM1.675 29.725L1.345 29.675L2.39 28.375H2.775L1.675 29.725Z" fill="#6B6B6B"/>
<path d="M4.40727 31.025C4.15393 31.025 3.9256 30.9683 3.72227 30.855C3.52227 30.7383 3.36393 30.58 3.24727 30.38C3.1306 30.1767 3.07227 29.945 3.07227 29.685C3.07227 29.4217 3.1306 29.19 3.24727 28.99C3.36393 28.79 3.52227 28.6333 3.72227 28.52C3.92227 28.4067 4.1506 28.35 4.40727 28.35C4.66727 28.35 4.89727 28.4067 5.09727 28.52C5.3006 28.6333 5.45893 28.79 5.57227 28.99C5.68893 29.19 5.74727 29.4217 5.74727 29.685C5.74727 29.945 5.68893 30.1767 5.57227 30.38C5.45893 30.58 5.3006 30.7383 5.09727 30.855C4.89393 30.9683 4.66393 31.025 4.40727 31.025ZM4.40727 30.71C4.59727 30.71 4.7656 30.6683 4.91227 30.585C5.05893 30.4983 5.17393 30.3783 5.25727 30.225C5.34393 30.0683 5.38727 29.8883 5.38727 29.685C5.38727 29.4783 5.34393 29.2983 5.25727 29.145C5.17393 28.9917 5.05893 28.8733 4.91227 28.79C4.7656 28.7033 4.59893 28.66 4.41227 28.66C4.2256 28.66 4.05893 28.7033 3.91227 28.79C3.7656 28.8733 3.64893 28.9917 3.56227 29.145C3.4756 29.2983 3.43227 29.4783 3.43227 29.685C3.43227 29.8883 3.4756 30.0683 3.56227 30.225C3.64893 30.3783 3.7656 30.4983 3.91227 30.585C4.05893 30.6683 4.22393 30.71 4.40727 30.71Z" fill="#6B6B6B"/>
<path d="M6.50598 31V28.375H6.86598L8.05598 30.39H7.90598L9.11598 28.375H9.44598V31H9.12098V28.78L9.18598 28.81L8.05598 30.68H7.89598L6.75598 28.79L6.83098 28.775V31H6.50598Z" fill="#6B6B6B"/>
<path d="M10.4562 31V28.375H12.8162V31H12.4612V28.59L12.5512 28.685H10.7212L10.8112 28.59V31H10.4562Z" fill="#6B6B6B"/>
<path d="M15.4553 31V30.42L15.4403 30.325V29.355C15.4403 29.1317 15.377 28.96 15.2503 28.84C15.127 28.72 14.942 28.66 14.6953 28.66C14.5253 28.66 14.3636 28.6883 14.2103 28.745C14.057 28.8017 13.927 28.8767 13.8203 28.97L13.6603 28.705C13.7936 28.5917 13.9536 28.505 14.1403 28.445C14.327 28.3817 14.5236 28.35 14.7303 28.35C15.0703 28.35 15.332 28.435 15.5153 28.605C15.702 28.7717 15.7953 29.0267 15.7953 29.37V31H15.4553ZM14.5503 31.025C14.3536 31.025 14.182 30.9933 14.0353 30.93C13.892 30.8633 13.782 30.7733 13.7053 30.66C13.6286 30.5433 13.5903 30.41 13.5903 30.26C13.5903 30.1233 13.622 30 13.6853 29.89C13.752 29.7767 13.8586 29.6867 14.0053 29.62C14.1553 29.55 14.3553 29.515 14.6053 29.515H15.5103V29.78H14.6153C14.362 29.78 14.1853 29.825 14.0853 29.915C13.9886 30.005 13.9403 30.1167 13.9403 30.25C13.9403 30.4 13.9986 30.52 14.1153 30.61C14.232 30.7 14.3953 30.745 14.6053 30.745C14.8053 30.745 14.977 30.7 15.1203 30.61C15.267 30.5167 15.3736 30.3833 15.4403 30.21L15.5203 30.455C15.4536 30.6283 15.337 30.7667 15.1703 30.87C15.007 30.9733 14.8003 31.025 14.5503 31.025Z" fill="#6B6B6B"/>
<path d="M16.7404 31V28.375H17.0954V29.535H18.7504V28.375H19.1054V31H18.7504V29.84H17.0954V31H16.7404Z" fill="#6B6B6B"/>
<path d="M20.1144 31V28.375H20.4694V30.46L22.2244 28.375H22.5394V31H22.1844V28.91L20.4344 31H20.1144Z" fill="#6B6B6B"/>
<path d="M25.2518 31V30.055L25.3168 30.13H24.4268C24.0901 30.13 23.8268 30.0567 23.6368 29.91C23.4468 29.7633 23.3518 29.55 23.3518 29.27C23.3518 28.97 23.4534 28.7467 23.6568 28.6C23.8601 28.45 24.1318 28.375 24.4718 28.375H25.5768V31H25.2518ZM23.3318 31L24.0518 29.99H24.4218L23.7168 31H23.3318ZM25.2518 29.95V28.58L25.3168 28.685H24.4818C24.2384 28.685 24.0484 28.7317 23.9118 28.825C23.7784 28.9183 23.7118 29.07 23.7118 29.28C23.7118 29.67 23.9601 29.865 24.4568 29.865H25.3168L25.2518 29.95Z" fill="#6B6B6B"/>
<path d="M57.725 26.03C57.5117 26.03 57.3217 25.995 57.155 25.925C56.9917 25.855 56.8517 25.7483 56.735 25.605C56.6184 25.4617 56.53 25.285 56.47 25.075C56.41 24.8617 56.38 24.615 56.38 24.335C56.38 24.085 56.4034 23.8667 56.45 23.68C56.4967 23.49 56.5617 23.3267 56.645 23.19C56.7284 23.0533 56.825 22.9383 56.935 22.845C57.0484 22.7483 57.17 22.6717 57.3 22.615C57.4334 22.555 57.57 22.51 57.71 22.48L58.89 22.205L58.95 22.535L57.84 22.785C57.77 22.8017 57.685 22.825 57.585 22.855C57.4884 22.885 57.3884 22.93 57.285 22.99C57.185 23.05 57.0917 23.1333 57.005 23.24C56.9184 23.3467 56.8484 23.485 56.795 23.655C56.745 23.8217 56.72 24.03 56.72 24.28C56.72 24.3333 56.7217 24.3767 56.725 24.41C56.7284 24.44 56.7317 24.4733 56.735 24.51C56.7417 24.5433 56.7467 24.5933 56.75 24.66L56.595 24.53C56.6317 24.3267 56.7067 24.15 56.82 24C56.9334 23.8467 57.075 23.7283 57.245 23.645C57.4184 23.5583 57.61 23.515 57.82 23.515C58.0634 23.515 58.28 23.5683 58.47 23.675C58.66 23.7783 58.8084 23.9233 58.915 24.11C59.025 24.2967 59.08 24.5133 59.08 24.76C59.08 25.0033 59.0234 25.2217 58.91 25.415C58.8 25.6083 58.6434 25.76 58.44 25.87C58.2367 25.9767 57.9984 26.03 57.725 26.03ZM57.765 25.735C57.9517 25.735 58.1167 25.6933 58.26 25.61C58.4034 25.5233 58.515 25.4067 58.595 25.26C58.6784 25.1133 58.72 24.9483 58.72 24.765C58.72 24.585 58.6784 24.425 58.595 24.285C58.515 24.145 58.4034 24.035 58.26 23.955C58.1167 23.8717 57.95 23.83 57.76 23.83C57.5734 23.83 57.4084 23.87 57.265 23.95C57.1217 24.0267 57.0084 24.135 56.925 24.275C56.845 24.415 56.805 24.5767 56.805 24.76C56.805 24.9433 56.845 25.1083 56.925 25.255C57.0084 25.4017 57.1217 25.5183 57.265 25.605C57.4117 25.6917 57.5784 25.735 57.765 25.735Z" fill="#6B6B6B"/>
<path d="M60.8809 26.005L59.8409 26V23.375H60.1959V24.29L60.9459 24.3C61.2759 24.3033 61.5276 24.3767 61.7009 24.52C61.8743 24.6633 61.9609 24.87 61.9609 25.14C61.9609 25.42 61.8676 25.635 61.6809 25.785C61.4943 25.935 61.2276 26.0083 60.8809 26.005ZM60.8559 25.735C61.1026 25.7383 61.2876 25.69 61.4109 25.59C61.5376 25.4867 61.6009 25.3367 61.6009 25.14C61.6009 24.9433 61.5393 24.8 61.4159 24.71C61.2926 24.6167 61.1059 24.5683 60.8559 24.565L60.1959 24.555V25.725L60.8559 25.735ZM62.4009 26V23.375H62.7559V26H62.4009Z" fill="#6B6B6B"/>
<path d="M64.8667 26.025C64.6067 26.025 64.3734 25.9683 64.1667 25.855C63.9634 25.7383 63.8034 25.58 63.6867 25.38C63.5701 25.1767 63.5117 24.945 63.5117 24.685C63.5117 24.4217 63.5701 24.19 63.6867 23.99C63.8034 23.79 63.9634 23.6333 64.1667 23.52C64.3734 23.4067 64.6067 23.35 64.8667 23.35C65.0901 23.35 65.2917 23.3933 65.4717 23.48C65.6517 23.5667 65.7934 23.6967 65.8967 23.87L65.6317 24.05C65.5417 23.9167 65.4301 23.8183 65.2967 23.755C65.1634 23.6917 65.0184 23.66 64.8617 23.66C64.6751 23.66 64.5067 23.7033 64.3567 23.79C64.2067 23.8733 64.0884 23.9917 64.0017 24.145C63.915 24.2983 63.8717 24.4783 63.8717 24.685C63.8717 24.8917 63.915 25.0717 64.0017 25.225C64.0884 25.3783 64.2067 25.4983 64.3567 25.585C64.5067 25.6683 64.6751 25.71 64.8617 25.71C65.0184 25.71 65.1634 25.6783 65.2967 25.615C65.4301 25.5517 65.5417 25.455 65.6317 25.325L65.8967 25.505C65.7934 25.675 65.6517 25.805 65.4717 25.895C65.2917 25.9817 65.0901 26.025 64.8667 26.025Z" fill="#6B6B6B"/>
<path d="M67.0353 26V23.59L67.1253 23.685H66.0403V23.375H68.3853V23.685H67.3003L67.3903 23.59V26H67.0353Z" fill="#6B6B6B"/>
<path d="M70.2536 26.025C70.0269 26.025 69.8219 25.9733 69.6386 25.87C69.4552 25.7633 69.3086 25.6117 69.1986 25.415C69.0919 25.215 69.0386 24.9717 69.0386 24.685C69.0386 24.3983 69.0919 24.1567 69.1986 23.96C69.3052 23.76 69.4502 23.6083 69.6336 23.505C69.8169 23.4017 70.0236 23.35 70.2536 23.35C70.5036 23.35 70.7269 23.4067 70.9236 23.52C71.1236 23.63 71.2802 23.7867 71.3936 23.99C71.5069 24.19 71.5636 24.4217 71.5636 24.685C71.5636 24.9517 71.5069 25.185 71.3936 25.385C71.2802 25.585 71.1236 25.7417 70.9236 25.855C70.7269 25.9683 70.5036 26.025 70.2536 26.025ZM68.8986 26.97V23.375H69.2386V24.165L69.2036 24.69L69.2536 25.22V26.97H68.8986ZM70.2286 25.71C70.4152 25.71 70.5819 25.6683 70.7286 25.585C70.8752 25.4983 70.9919 25.3783 71.0786 25.225C71.1652 25.0683 71.2086 24.8883 71.2086 24.685C71.2086 24.4817 71.1652 24.3033 71.0786 24.15C70.9919 23.9967 70.8752 23.8767 70.7286 23.79C70.5819 23.7033 70.4152 23.66 70.2286 23.66C70.0419 23.66 69.8736 23.7033 69.7236 23.79C69.5769 23.8767 69.4602 23.9967 69.3736 24.15C69.2902 24.3033 69.2486 24.4817 69.2486 24.685C69.2486 24.8883 69.2902 25.0683 69.3736 25.225C69.4602 25.3783 69.5769 25.4983 69.7236 25.585C69.8736 25.6683 70.0419 25.71 70.2286 25.71Z" fill="#6B6B6B"/>
<path d="M73.4063 26.025C73.153 26.025 72.9246 25.9683 72.7213 25.855C72.5213 25.7383 72.363 25.58 72.2463 25.38C72.1296 25.1767 72.0713 24.945 72.0713 24.685C72.0713 24.4217 72.1296 24.19 72.2463 23.99C72.363 23.79 72.5213 23.6333 72.7213 23.52C72.9213 23.4067 73.1496 23.35 73.4063 23.35C73.6663 23.35 73.8963 23.4067 74.0963 23.52C74.2996 23.6333 74.458 23.79 74.5713 23.99C74.688 24.19 74.7463 24.4217 74.7463 24.685C74.7463 24.945 74.688 25.1767 74.5713 25.38C74.458 25.58 74.2996 25.7383 74.0963 25.855C73.893 25.9683 73.663 26.025 73.4063 26.025ZM73.4063 25.71C73.5963 25.71 73.7646 25.6683 73.9113 25.585C74.058 25.4983 74.173 25.3783 74.2563 25.225C74.343 25.0683 74.3863 24.8883 74.3863 24.685C74.3863 24.4783 74.343 24.2983 74.2563 24.145C74.173 23.9917 74.058 23.8733 73.9113 23.79C73.7646 23.7033 73.598 23.66 73.4113 23.66C73.2246 23.66 73.058 23.7033 72.9113 23.79C72.7646 23.8733 72.648 23.9917 72.5613 24.145C72.4746 24.2983 72.4313 24.4783 72.4313 24.685C72.4313 24.8883 72.4746 25.0683 72.5613 25.225C72.648 25.3783 72.7646 25.4983 72.9113 25.585C73.058 25.6683 73.223 25.71 73.4063 25.71Z" fill="#6B6B6B"/>
<path d="M52.2579 31V28.375H52.6129V29.535H54.2679V28.375H54.6229V31H54.2679V29.84H52.6129V31H52.2579Z" fill="#6B6B6B"/>
<path d="M57.262 31V30.42L57.247 30.325V29.355C57.247 29.1317 57.1836 28.96 57.057 28.84C56.9336 28.72 56.7486 28.66 56.502 28.66C56.332 28.66 56.1703 28.6883 56.017 28.745C55.8636 28.8017 55.7336 28.8767 55.627 28.97L55.467 28.705C55.6003 28.5917 55.7603 28.505 55.947 28.445C56.1336 28.3817 56.3303 28.35 56.537 28.35C56.877 28.35 57.1386 28.435 57.322 28.605C57.5086 28.7717 57.602 29.0267 57.602 29.37V31H57.262ZM56.357 31.025C56.1603 31.025 55.9886 30.9933 55.842 30.93C55.6986 30.8633 55.5886 30.7733 55.512 30.66C55.4353 30.5433 55.397 30.41 55.397 30.26C55.397 30.1233 55.4286 30 55.492 29.89C55.5586 29.7767 55.6653 29.6867 55.812 29.62C55.962 29.55 56.162 29.515 56.412 29.515H57.317V29.78H56.422C56.1686 29.78 55.992 29.825 55.892 29.915C55.7953 30.005 55.747 30.1167 55.747 30.25C55.747 30.4 55.8053 30.52 55.922 30.61C56.0386 30.7 56.202 30.745 56.412 30.745C56.612 30.745 56.7836 30.7 56.927 30.61C57.0736 30.5167 57.1803 30.3833 57.247 30.21L57.327 30.455C57.2603 30.6283 57.1436 30.7667 56.977 30.87C56.8136 30.9733 56.607 31.025 56.357 31.025Z" fill="#6B6B6B"/>
<path d="M58.552 30.755L58.197 30.69C58.3003 30.6933 58.3853 30.6567 58.452 30.58C58.5187 30.5 58.5703 30.3917 58.607 30.255C58.6437 30.1183 58.6703 29.9633 58.687 29.79C58.7037 29.6133 58.717 29.4333 58.727 29.25L58.762 28.375H60.702V30.83H60.347V28.685H59.082L59.052 29.27C59.0453 29.4467 59.0337 29.62 59.017 29.79C59.0037 29.96 58.9787 30.1167 58.942 30.26C58.9087 30.4 58.8603 30.515 58.797 30.605C58.7337 30.6917 58.652 30.7417 58.552 30.755ZM58.087 31.635V30.69H61.112V31.635H60.777V31H58.422V31.635H58.087Z" fill="#6B6B6B"/>
<path d="M62.9288 31.025C62.6555 31.025 62.4155 30.9683 62.2088 30.855C62.0022 30.7383 61.8405 30.58 61.7238 30.38C61.6072 30.1767 61.5488 29.945 61.5488 29.685C61.5488 29.425 61.6038 29.195 61.7138 28.995C61.8272 28.795 61.9805 28.6383 62.1738 28.525C62.3705 28.4083 62.5905 28.35 62.8338 28.35C63.0805 28.35 63.2988 28.4067 63.4888 28.52C63.6822 28.63 63.8338 28.7867 63.9438 28.99C64.0538 29.19 64.1088 29.4217 64.1088 29.685C64.1088 29.7017 64.1072 29.72 64.1038 29.74C64.1038 29.7567 64.1038 29.775 64.1038 29.795H61.8188V29.53H63.9138L63.7738 29.635C63.7738 29.445 63.7322 29.2767 63.6488 29.13C63.5688 28.98 63.4588 28.8633 63.3188 28.78C63.1788 28.6967 63.0172 28.655 62.8338 28.655C62.6538 28.655 62.4922 28.6967 62.3488 28.78C62.2055 28.8633 62.0938 28.98 62.0138 29.13C61.9338 29.28 61.8938 29.4517 61.8938 29.645V29.7C61.8938 29.9 61.9372 30.0767 62.0238 30.23C62.1138 30.38 62.2372 30.4983 62.3938 30.585C62.5538 30.6683 62.7355 30.71 62.9388 30.71C63.0988 30.71 63.2472 30.6817 63.3838 30.625C63.5238 30.5683 63.6438 30.4817 63.7438 30.365L63.9438 30.595C63.8272 30.735 63.6805 30.8417 63.5038 30.915C63.3305 30.9883 63.1388 31.025 62.9288 31.025ZM63.2788 27.85C63.2222 27.85 63.1722 27.83 63.1288 27.79C63.0855 27.75 63.0638 27.6983 63.0638 27.635C63.0638 27.5717 63.0855 27.52 63.1288 27.48C63.1722 27.44 63.2222 27.42 63.2788 27.42C63.3388 27.42 63.3888 27.44 63.4288 27.48C63.4722 27.52 63.4938 27.5717 63.4938 27.635C63.4938 27.6983 63.4722 27.75 63.4288 27.79C63.3888 27.83 63.3388 27.85 63.2788 27.85ZM62.3888 27.85C62.3288 27.85 62.2772 27.83 62.2338 27.79C62.1938 27.75 62.1738 27.6983 62.1738 27.635C62.1738 27.5717 62.1938 27.52 62.2338 27.48C62.2772 27.44 62.3288 27.42 62.3888 27.42C62.4455 27.42 62.4955 27.44 62.5388 27.48C62.5822 27.52 62.6038 27.5717 62.6038 27.635C62.6038 27.6983 62.5822 27.75 62.5388 27.79C62.4955 27.83 62.4455 27.85 62.3888 27.85Z" fill="#6B6B6B"/>
<path d="M67.9364 31L67.0364 29.7L67.3314 29.525L68.3614 31H67.9364ZM64.4014 31L65.4314 29.525L65.7214 29.7L64.8264 31H64.4014ZM65.4014 29.725L64.4764 28.375H64.8614L65.7314 29.675L65.4014 29.725ZM65.4864 29.83V29.525H66.3114V29.83H65.4864ZM66.2014 31V28.375H66.5564V31H66.2014ZM66.4464 29.83V29.525H67.2764V29.83H66.4464ZM67.3664 29.725L67.0264 29.675L67.9014 28.375H68.2864L67.3664 29.725Z" fill="#6B6B6B"/>
<path d="M68.9523 31V28.375H69.3073V29.535H70.9623V28.375H71.3173V31H70.9623V29.84H69.3073V31H68.9523Z" fill="#6B6B6B"/>
<path d="M73.4063 31.025C73.153 31.025 72.9246 30.9683 72.7213 30.855C72.5213 30.7383 72.363 30.58 72.2463 30.38C72.1296 30.1767 72.0713 29.945 72.0713 29.685C72.0713 29.4217 72.1296 29.19 72.2463 28.99C72.363 28.79 72.5213 28.6333 72.7213 28.52C72.9213 28.4067 73.1496 28.35 73.4063 28.35C73.6663 28.35 73.8963 28.4067 74.0963 28.52C74.2996 28.6333 74.458 28.79 74.5713 28.99C74.688 29.19 74.7463 29.4217 74.7463 29.685C74.7463 29.945 74.688 30.1767 74.5713 30.38C74.458 30.58 74.2996 30.7383 74.0963 30.855C73.893 30.9683 73.663 31.025 73.4063 31.025ZM73.4063 30.71C73.5963 30.71 73.7646 30.6683 73.9113 30.585C74.058 30.4983 74.173 30.3783 74.2563 30.225C74.343 30.0683 74.3863 29.8883 74.3863 29.685C74.3863 29.4783 74.343 29.2983 74.2563 29.145C74.173 28.9917 74.058 28.8733 73.9113 28.79C73.7646 28.7033 73.598 28.66 73.4113 28.66C73.2246 28.66 73.058 28.7033 72.9113 28.79C72.7646 28.8733 72.648 28.9917 72.5613 29.145C72.4746 29.2983 72.4313 29.4783 72.4313 29.685C72.4313 29.8883 72.4746 30.0683 72.5613 30.225C72.648 30.3783 72.7646 30.4983 72.9113 30.585C73.058 30.6683 73.223 30.71 73.4063 30.71Z" fill="#6B6B6B"/>
<path d="M48.7944 36.03C48.581 36.03 48.391 35.995 48.2244 35.925C48.061 35.855 47.921 35.7483 47.8044 35.605C47.6877 35.4617 47.5994 35.285 47.5394 35.075C47.4794 34.8617 47.4494 34.615 47.4494 34.335C47.4494 34.085 47.4727 33.8667 47.5194 33.68C47.566 33.49 47.631 33.3267 47.7144 33.19C47.7977 33.0533 47.8944 32.9383 48.0044 32.845C48.1177 32.7483 48.2394 32.6717 48.3694 32.615C48.5027 32.555 48.6394 32.51 48.7794 32.48L49.9594 32.205L50.0194 32.535L48.9094 32.785C48.8394 32.8017 48.7544 32.825 48.6544 32.855C48.5577 32.885 48.4577 32.93 48.3544 32.99C48.2544 33.05 48.161 33.1333 48.0744 33.24C47.9877 33.3467 47.9177 33.485 47.8644 33.655C47.8144 33.8217 47.7894 34.03 47.7894 34.28C47.7894 34.3333 47.791 34.3767 47.7944 34.41C47.7977 34.44 47.801 34.4733 47.8044 34.51C47.811 34.5433 47.816 34.5933 47.8194 34.66L47.6644 34.53C47.701 34.3267 47.776 34.15 47.8894 34C48.0027 33.8467 48.1444 33.7283 48.3144 33.645C48.4877 33.5583 48.6794 33.515 48.8894 33.515C49.1327 33.515 49.3494 33.5683 49.5394 33.675C49.7294 33.7783 49.8777 33.9233 49.9844 34.11C50.0944 34.2967 50.1494 34.5133 50.1494 34.76C50.1494 35.0033 50.0927 35.2217 49.9794 35.415C49.8694 35.6083 49.7127 35.76 49.5094 35.87C49.306 35.9767 49.0677 36.03 48.7944 36.03ZM48.8344 35.735C49.021 35.735 49.186 35.6933 49.3294 35.61C49.4727 35.5233 49.5844 35.4067 49.6644 35.26C49.7477 35.1133 49.7894 34.9483 49.7894 34.765C49.7894 34.585 49.7477 34.425 49.6644 34.285C49.5844 34.145 49.4727 34.035 49.3294 33.955C49.186 33.8717 49.0194 33.83 48.8294 33.83C48.6427 33.83 48.4777 33.87 48.3344 33.95C48.191 34.0267 48.0777 34.135 47.9944 34.275C47.9144 34.415 47.8744 34.5767 47.8744 34.76C47.8744 34.9433 47.9144 35.1083 47.9944 35.255C48.0777 35.4017 48.191 35.5183 48.3344 35.605C48.481 35.6917 48.6477 35.735 48.8344 35.735Z" fill="#6B6B6B"/>
<path d="M52.0353 36.025C51.7619 36.025 51.5219 35.9683 51.3153 35.855C51.1086 35.7383 50.9469 35.58 50.8303 35.38C50.7136 35.1767 50.6553 34.945 50.6553 34.685C50.6553 34.425 50.7103 34.195 50.8203 33.995C50.9336 33.795 51.0869 33.6383 51.2803 33.525C51.4769 33.4083 51.6969 33.35 51.9403 33.35C52.1869 33.35 52.4053 33.4067 52.5953 33.52C52.7886 33.63 52.9403 33.7867 53.0503 33.99C53.1603 34.19 53.2153 34.4217 53.2153 34.685C53.2153 34.7017 53.2136 34.72 53.2103 34.74C53.2103 34.7567 53.2103 34.775 53.2103 34.795H50.9253V34.53H53.0203L52.8803 34.635C52.8803 34.445 52.8386 34.2767 52.7553 34.13C52.6753 33.98 52.5653 33.8633 52.4253 33.78C52.2853 33.6967 52.1236 33.655 51.9403 33.655C51.7603 33.655 51.5986 33.6967 51.4553 33.78C51.3119 33.8633 51.2003 33.98 51.1203 34.13C51.0403 34.28 51.0003 34.4517 51.0003 34.645V34.7C51.0003 34.9 51.0436 35.0767 51.1303 35.23C51.2203 35.38 51.3436 35.4983 51.5003 35.585C51.6603 35.6683 51.8419 35.71 52.0453 35.71C52.2053 35.71 52.3536 35.6817 52.4903 35.625C52.6303 35.5683 52.7503 35.4817 52.8503 35.365L53.0503 35.595C52.9336 35.735 52.7869 35.8417 52.6103 35.915C52.4369 35.9883 52.2453 36.025 52.0353 36.025Z" fill="#6B6B6B"/>
<path d="M54.7061 36.03C54.5161 36.03 54.3278 36.0033 54.1411 35.95C53.9544 35.8967 53.7894 35.815 53.6461 35.705L53.7611 35.44C53.8878 35.5333 54.0344 35.605 54.2011 35.655C54.3678 35.7017 54.5328 35.725 54.6961 35.725C54.8594 35.7217 55.0011 35.6983 55.1211 35.655C55.2411 35.6117 55.3344 35.5517 55.4011 35.475C55.4678 35.3983 55.5011 35.3117 55.5011 35.215C55.5011 35.075 55.4378 34.9667 55.3111 34.89C55.1844 34.81 55.0111 34.77 54.7911 34.77H54.2661V34.51H54.7661C54.8961 34.51 55.0111 34.4933 55.1111 34.46C55.2111 34.4267 55.2878 34.3783 55.3411 34.315C55.3978 34.2517 55.4261 34.1767 55.4261 34.09C55.4261 33.9967 55.3928 33.9167 55.3261 33.85C55.2628 33.7833 55.1744 33.7333 55.0611 33.7C54.9478 33.6667 54.8194 33.65 54.6761 33.65C54.5461 33.6533 54.4111 33.6733 54.2711 33.71C54.1311 33.7433 53.9928 33.795 53.8561 33.865L53.7561 33.59C53.9094 33.51 54.0611 33.45 54.2111 33.41C54.3644 33.3667 54.5178 33.345 54.6711 33.345C54.8811 33.3383 55.0694 33.3633 55.2361 33.42C55.4061 33.4767 55.5411 33.5583 55.6411 33.665C55.7411 33.7683 55.7911 33.8933 55.7911 34.04C55.7911 34.17 55.7511 34.2833 55.6711 34.38C55.5911 34.4767 55.4844 34.5517 55.3511 34.605C55.2178 34.6583 55.0661 34.685 54.8961 34.685L54.9111 34.59C55.2111 34.59 55.4444 34.6483 55.6111 34.765C55.7811 34.8817 55.8661 35.04 55.8661 35.24C55.8661 35.3967 55.8144 35.535 55.7111 35.655C55.6078 35.7717 55.4678 35.8633 55.2911 35.93C55.1178 35.9967 54.9228 36.03 54.7061 36.03Z" fill="#6B6B6B"/>
<path d="M57.752 36.025C57.4987 36.025 57.2703 35.9683 57.067 35.855C56.867 35.7383 56.7087 35.58 56.592 35.38C56.4753 35.1767 56.417 34.945 56.417 34.685C56.417 34.4217 56.4753 34.19 56.592 33.99C56.7087 33.79 56.867 33.6333 57.067 33.52C57.267 33.4067 57.4953 33.35 57.752 33.35C58.012 33.35 58.242 33.4067 58.442 33.52C58.6453 33.6333 58.8037 33.79 58.917 33.99C59.0337 34.19 59.092 34.4217 59.092 34.685C59.092 34.945 59.0337 35.1767 58.917 35.38C58.8037 35.58 58.6453 35.7383 58.442 35.855C58.2387 35.9683 58.0087 36.025 57.752 36.025ZM57.752 35.71C57.942 35.71 58.1103 35.6683 58.257 35.585C58.4037 35.4983 58.5187 35.3783 58.602 35.225C58.6887 35.0683 58.732 34.8883 58.732 34.685C58.732 34.4783 58.6887 34.2983 58.602 34.145C58.5187 33.9917 58.4037 33.8733 58.257 33.79C58.1103 33.7033 57.9437 33.66 57.757 33.66C57.5703 33.66 57.4037 33.7033 57.257 33.79C57.1103 33.8733 56.9937 33.9917 56.907 34.145C56.8203 34.2983 56.777 34.4783 56.777 34.685C56.777 34.8883 56.8203 35.0683 56.907 35.225C56.9937 35.3783 57.1103 35.4983 57.257 35.585C57.4037 35.6683 57.5687 35.71 57.752 35.71Z" fill="#6B6B6B"/>
<path d="M59.8507 36V33.375H62.2107V36H61.8557V33.59L61.9457 33.685H60.1157L60.2057 33.59V36H59.8507Z" fill="#6B6B6B"/>
<path d="M64.8498 36V35.42L64.8348 35.325V34.355C64.8348 34.1317 64.7715 33.96 64.6448 33.84C64.5215 33.72 64.3365 33.66 64.0898 33.66C63.9198 33.66 63.7582 33.6883 63.6048 33.745C63.4515 33.8017 63.3215 33.8767 63.2148 33.97L63.0548 33.705C63.1882 33.5917 63.3482 33.505 63.5348 33.445C63.7215 33.3817 63.9182 33.35 64.1248 33.35C64.4648 33.35 64.7265 33.435 64.9098 33.605C65.0965 33.7717 65.1898 34.0267 65.1898 34.37V36H64.8498ZM63.9448 36.025C63.7482 36.025 63.5765 35.9933 63.4298 35.93C63.2865 35.8633 63.1765 35.7733 63.0998 35.66C63.0232 35.5433 62.9848 35.41 62.9848 35.26C62.9848 35.1233 63.0165 35 63.0798 34.89C63.1465 34.7767 63.2532 34.6867 63.3998 34.62C63.5498 34.55 63.7498 34.515 63.9998 34.515H64.9048V34.78H64.0098C63.7565 34.78 63.5798 34.825 63.4798 34.915C63.3832 35.005 63.3348 35.1167 63.3348 35.25C63.3348 35.4 63.3932 35.52 63.5098 35.61C63.6265 35.7 63.7898 35.745 63.9998 35.745C64.1998 35.745 64.3715 35.7 64.5148 35.61C64.6615 35.5167 64.7682 35.3833 64.8348 35.21L64.9148 35.455C64.8482 35.6283 64.7315 35.7667 64.5648 35.87C64.4015 35.9733 64.1948 36.025 63.9448 36.025Z" fill="#6B6B6B"/>
<path d="M67.2349 36.025C66.9749 36.025 66.7415 35.9683 66.5349 35.855C66.3315 35.7383 66.1716 35.58 66.0549 35.38C65.9382 35.1767 65.8799 34.945 65.8799 34.685C65.8799 34.4217 65.9382 34.19 66.0549 33.99C66.1716 33.79 66.3315 33.6333 66.5349 33.52C66.7415 33.4067 66.9749 33.35 67.2349 33.35C67.4582 33.35 67.6599 33.3933 67.8399 33.48C68.0199 33.5667 68.1616 33.6967 68.2649 33.87L67.9999 34.05C67.9099 33.9167 67.7982 33.8183 67.6649 33.755C67.5316 33.6917 67.3865 33.66 67.2299 33.66C67.0432 33.66 66.8749 33.7033 66.7249 33.79C66.5749 33.8733 66.4565 33.9917 66.3699 34.145C66.2832 34.2983 66.2399 34.4783 66.2399 34.685C66.2399 34.8917 66.2832 35.0717 66.3699 35.225C66.4565 35.3783 66.5749 35.4983 66.7249 35.585C66.8749 35.6683 67.0432 35.71 67.2299 35.71C67.3865 35.71 67.5316 35.6783 67.6649 35.615C67.7982 35.5517 67.9099 35.455 67.9999 35.325L68.2649 35.505C68.1616 35.675 68.0199 35.805 67.8399 35.895C67.6599 35.9817 67.4582 36.025 67.2349 36.025Z" fill="#6B6B6B"/>
<path d="M68.9523 36V33.375H69.3073V34.535H70.9623V33.375H71.3173V36H70.9623V34.84H69.3073V36H68.9523Z" fill="#6B6B6B"/>
<path d="M73.4063 36.025C73.153 36.025 72.9246 35.9683 72.7213 35.855C72.5213 35.7383 72.363 35.58 72.2463 35.38C72.1296 35.1767 72.0713 34.945 72.0713 34.685C72.0713 34.4217 72.1296 34.19 72.2463 33.99C72.363 33.79 72.5213 33.6333 72.7213 33.52C72.9213 33.4067 73.1496 33.35 73.4063 33.35C73.6663 33.35 73.8963 33.4067 74.0963 33.52C74.2996 33.6333 74.458 33.79 74.5713 33.99C74.688 34.19 74.7463 34.4217 74.7463 34.685C74.7463 34.945 74.688 35.1767 74.5713 35.38C74.458 35.58 74.2996 35.7383 74.0963 35.855C73.893 35.9683 73.663 36.025 73.4063 36.025ZM73.4063 35.71C73.5963 35.71 73.7646 35.6683 73.9113 35.585C74.058 35.4983 74.173 35.3783 74.2563 35.225C74.343 35.0683 74.3863 34.8883 74.3863 34.685C74.3863 34.4783 74.343 34.2983 74.2563 34.145C74.173 33.9917 74.058 33.8733 73.9113 33.79C73.7646 33.7033 73.598 33.66 73.4113 33.66C73.2246 33.66 73.058 33.7033 72.9113 33.79C72.7646 33.8733 72.648 33.9917 72.5613 34.145C72.4746 34.2983 72.4313 34.4783 72.4313 34.685C72.4313 34.8883 72.4746 35.0683 72.5613 35.225C72.648 35.3783 72.7646 35.4983 72.9113 35.585C73.058 35.6683 73.223 35.71 73.4063 35.71Z" fill="#6B6B6B"/>
</svg>
