<svg width="16" height="16" viewBox="0 0 16 16" fill="none" xmlns="http://www.w3.org/2000/svg">
<path fill-rule="evenodd" clip-rule="evenodd" d="M1.88541 0.510194C2.06038 0.335474 2.27048 0.199938 2.50179 0.112565C2.7331 0.0251932 2.98033 -0.0120195 3.22711 0.00339337C3.47389 0.0188063 3.71457 0.0864929 3.93321 0.201968C4.15185 0.317442 4.34346 0.478068 4.49533 0.673201L6.29027 2.97931C6.61926 3.40233 6.73526 3.95335 6.60526 4.47338L6.05828 6.66348C6.0302 6.77692 6.03182 6.89569 6.063 7.00832C6.09418 7.12096 6.15386 7.22365 6.23628 7.30651L8.6932 9.76362C8.77614 9.84621 8.879 9.90599 8.99182 9.93718C9.10464 9.96836 9.22359 9.96989 9.33718 9.94163L11.5261 9.3946C11.7827 9.33081 12.0505 9.32601 12.3092 9.38057C12.568 9.43513 12.811 9.54763 13.0201 9.70962L15.326 11.5037C16.155 12.1487 16.231 13.3738 15.489 14.1148L14.455 15.1489C13.715 15.8889 12.6091 16.2139 11.5781 15.8509C8.93886 14.9234 6.54281 13.4125 4.56833 11.4307C2.58676 9.45635 1.07599 7.06046 0.148466 4.42137C-0.213522 3.39133 0.111467 2.28428 0.851444 1.54424L1.88541 0.510194Z" fill="#1A1A1A"/>
</svg>
