<svg width="70" height="100" viewBox="0 0 70 100" fill="none" xmlns="http://www.w3.org/2000/svg">
<path d="M55.3187 0.424999C55.9304 0.779614 56.4038 1.33119 56.6615 1.98961C56.9192 2.64803 56.946 3.37438 56.7375 4.05L45.4812 40.625H66.25C66.8603 40.6248 67.4574 40.8032 67.9675 41.1384C68.4775 41.4736 68.8783 41.9509 69.1202 42.5112C69.3622 43.0715 69.4347 43.6905 69.329 44.2916C69.2232 44.8927 68.9437 45.4497 68.525 45.8937L18.525 99.0188C18.0412 99.5332 17.3974 99.8686 16.6986 99.9703C15.9997 100.072 15.2871 99.9341 14.6767 99.5789C14.0663 99.2237 13.5942 98.6722 13.3374 98.0143C13.0806 97.3565 13.0542 96.631 13.2625 95.9562L24.5187 59.375H3.75C3.13965 59.3752 2.5426 59.1967 2.03253 58.8616C1.52247 58.5264 1.12173 58.0491 0.879777 57.4888C0.637827 56.9285 0.565262 56.3095 0.671037 55.7084C0.776813 55.1073 1.0563 54.5503 1.475 54.1062L51.475 0.981249C51.9582 0.467494 52.601 0.132303 53.2988 0.0301775C53.9967 -0.0719479 54.7086 0.0649982 55.3187 0.418749V0.424999Z" fill="black"/>
</svg>
