<svg width="137" height="28" viewBox="0 0 137 28" fill="none" xmlns="http://www.w3.org/2000/svg">
<path d="M7.2592 20.1156C6.34684 20.1156 5.47415 19.8758 4.64112 19.3961C4.22461 19.1563 3.81802 18.8765 3.42134 18.5567C3.02466 18.217 2.64782 17.8273 2.29081 17.3876C1.9338 16.9279 1.60654 16.4283 1.30904 15.8886C1.03136 15.329 0.793355 14.7395 0.595016 14.1199C0.198339 12.8208 0 11.4118 0 9.89293C0 8.37402 0.198339 6.98501 0.595016 5.72591C0.793355 5.10635 1.03136 4.53676 1.30904 4.01713C1.60654 3.4975 1.92389 3.02784 2.26106 2.60814C2.93541 1.76874 3.71885 1.1192 4.61137 0.659529C5.46423 0.219843 6.34684 0 7.2592 0C8.17155 0 9.05416 0.219843 9.90702 0.659529C10.7995 1.1192 11.583 1.76874 12.2573 2.60814C12.5945 3.02784 12.9019 3.4975 13.1796 4.01713C13.4771 4.53676 13.725 5.10635 13.9234 5.72591C14.3201 6.98501 14.5184 8.37402 14.5184 9.89293C14.5184 11.4318 14.3101 12.8508 13.8936 14.1499C13.4771 15.449 12.9218 16.5382 12.2276 17.4176C11.8904 17.8572 11.5235 18.237 11.1268 18.5567C10.75 18.8765 10.3434 19.1563 9.90702 19.3961C9.05416 19.8758 8.17155 20.1156 7.2592 20.1156ZM7.2592 18.7066C8.5484 18.7066 9.193 16.818 9.193 13.0407V6.53533C9.193 5.77587 9.15333 5.08637 9.07399 4.46681C8.99466 3.82727 8.87566 3.25767 8.71698 2.75803C8.37981 1.75874 7.89388 1.2591 7.2592 1.2591C6.62451 1.2591 6.13858 1.75874 5.80141 2.75803C5.48406 3.71735 5.32539 4.97645 5.32539 6.53533V13.0407C5.32539 16.818 5.96999 18.7066 7.2592 18.7066Z" fill="#1A1A1A"/>
<path d="M27.1385 17.8672C27.1385 18.6867 27.0592 19.2263 26.9005 19.4861C26.7419 19.7459 26.4344 19.8758 25.9783 19.8758H18.0943C17.5389 19.8758 17.2613 19.626 17.2613 19.1263V6.83512C17.2613 6.4354 17.4199 6.23555 17.7373 6.23555H25.532C25.9088 6.23555 26.1667 6.3055 26.3055 6.4454C26.4444 6.5853 26.5138 6.81513 26.5138 7.1349C26.5138 7.37473 26.4146 7.6945 26.2163 8.09422C26.1171 8.29408 26.0378 8.48394 25.9783 8.66381C25.9386 8.84368 25.8989 9.00357 25.8593 9.14347C25.8394 9.40328 25.7898 9.63312 25.7105 9.83298C25.651 10.0128 25.5816 10.1827 25.5022 10.3426C25.3436 10.6624 25.1849 10.8223 25.0262 10.8223C24.5899 10.8223 24.104 10.1927 23.5684 8.93362C23.4098 8.55389 23.1123 8.17416 22.6759 7.79443C22.2792 7.45468 21.8826 7.2848 21.4859 7.2848C21.2875 7.2848 21.1586 7.39472 21.0991 7.61456C21.0793 7.73447 21.0595 7.88437 21.0396 8.06424C21.0396 8.22413 21.0396 8.42398 21.0396 8.66381V12.651C22.071 12.651 23.0726 12.8508 24.0445 13.2505C24.9766 13.6303 25.7204 14.2198 26.2758 15.0193C26.8509 15.8387 27.1385 16.788 27.1385 17.8672ZM23.4494 17.9872C23.4494 16.788 23.3503 15.8787 23.1519 15.2591C22.9536 14.6395 22.6759 14.2098 22.3189 13.97C22.0016 13.7502 21.5751 13.6403 21.0396 13.6403V18.9764C21.7933 18.9764 22.3784 18.9065 22.7949 18.7666C23.2313 18.6267 23.4494 18.3669 23.4494 17.9872Z" fill="#1A1A1A"/>
<path d="M38.627 15.9186C39.0038 15.9186 39.2418 15.9886 39.341 16.1285C39.46 16.2484 39.5195 16.5082 39.5195 16.9079C39.5195 17.6074 39.3113 18.197 38.8948 18.6767C38.4782 19.1563 38.0121 19.5261 37.4965 19.7859C36.8618 20.1056 36.0188 20.2655 34.9676 20.2655C33.6388 20.2655 32.5479 19.9258 31.6951 19.2463C30.8422 18.5467 30.2174 17.6974 29.8208 16.6981C29.3844 15.6188 29.1662 14.4397 29.1662 13.1606C29.1662 11.5617 29.4836 10.1827 30.1183 9.02355C30.753 7.86438 31.5959 7.005 32.6471 6.4454C33.4008 6.04568 34.2239 5.84582 35.1164 5.84582C35.9296 5.84582 36.6436 6.0157 37.2585 6.35546C37.8733 6.69522 38.3493 7.11492 38.6865 7.61456C39.0237 8.1142 39.1923 8.63383 39.1923 9.17345C39.1923 9.79301 39.0534 10.1028 38.7757 10.1028C38.7757 10.1028 38.7658 10.1028 38.746 10.1028H36.3064C36.0288 10.1028 35.8403 10.0428 35.7412 9.92291C35.642 9.803 35.5924 9.60314 35.5924 9.32334C35.5924 7.9843 35.3147 7.31477 34.7594 7.31477C34.4024 7.31477 34.0553 7.57459 33.7181 8.09422C33.4008 8.59386 33.2421 9.49322 33.2421 10.7923C33.2421 11.7516 33.5198 12.2313 34.0751 12.2313H37.675C38.389 12.2313 38.746 12.4911 38.746 13.0107C38.746 13.3305 38.6567 13.5503 38.4782 13.6702C38.3196 13.7702 38.0716 13.8201 37.7345 13.8201H33.8966C33.6388 13.8201 33.4603 13.96 33.3611 14.2398C33.2818 14.5196 33.2421 14.8194 33.2421 15.1392C33.2421 16.5382 33.3611 17.5275 33.5991 18.1071C33.8371 18.6867 34.214 18.9764 34.7296 18.9764C35.3247 18.9764 35.6222 18.4568 35.6222 17.4176C35.6222 16.4183 35.88 15.9186 36.3957 15.9186H38.627Z" fill="#1A1A1A"/>
<path d="M51.6541 14.3597C51.6541 15.1792 51.5054 16.0585 51.2079 16.9979C50.9104 17.9172 50.4938 18.6966 49.9583 19.3362C49.4228 19.9557 48.8377 20.2655 48.203 20.2655C47.2312 20.2655 46.5271 19.9557 46.0907 19.3362C45.8527 19.7759 45.704 20.2256 45.6445 20.6852C45.6246 20.9051 45.5949 21.1849 45.5552 21.5246C45.5354 21.8644 45.5155 22.2441 45.4957 22.6638C45.4759 22.9236 45.466 23.1834 45.466 23.4433C45.466 23.7231 45.456 23.9829 45.4362 24.2227C45.4164 24.4625 45.4065 24.7123 45.4065 24.9722C45.4065 25.252 45.3866 25.5517 45.347 25.8715C45.228 27.2905 44.9899 28 44.6329 28C44.2958 28 44.0379 27.8001 43.8594 27.4004C43.6611 26.9807 43.4925 26.3312 43.3537 25.4518C43.3338 25.2719 43.3041 25.0421 43.2644 24.7623C43.2247 24.5025 43.1851 24.1927 43.1454 23.833C43.1057 23.4732 43.0561 23.1435 42.9966 22.8437C42.957 22.5639 42.9173 22.3241 42.8776 22.1242C42.8578 21.9044 42.8181 21.6745 42.7586 21.4347C42.719 21.1949 42.6793 20.945 42.6396 20.6852C42.5008 19.9058 42.3818 19.1963 42.2826 18.5567C42.1835 17.9172 42.1041 17.3376 42.0446 16.818C41.9256 15.7587 41.8661 14.5196 41.8661 13.1006C41.8661 12.0014 42.0545 10.8922 42.4314 9.77302C42.8082 8.65382 43.2545 7.71449 43.7702 6.95503C44.266 6.21556 44.6924 5.84582 45.0494 5.84582C45.6643 5.84582 46.5072 6.25553 47.5783 7.07495C48.1336 7.49465 48.6394 7.9743 49.0956 8.51392C49.5716 9.05353 50.0178 9.64311 50.4343 10.2827C51.2475 11.5418 51.6541 12.9008 51.6541 14.3597ZM47.7865 14.9893C47.7865 13.2305 47.6973 11.9015 47.5188 11.0021C47.4394 10.5425 47.3601 10.1727 47.2808 9.89293C47.2014 9.59315 47.1122 9.3833 47.013 9.26338C46.894 9.08351 46.7155 8.99358 46.4775 8.99358C46.1205 9.77302 45.8825 10.4625 45.7635 11.0621C45.6445 11.6617 45.585 12.561 45.585 13.7602C45.585 14.5796 45.6147 15.2491 45.6742 15.7687C45.7337 16.2684 45.8527 16.8779 46.0312 17.5974C46.1304 17.9572 46.2692 18.247 46.4477 18.4668C46.6461 18.6867 46.8642 18.7966 47.1023 18.7966C47.2808 18.7966 47.4097 18.7166 47.489 18.5567C47.5882 18.3569 47.6675 17.9772 47.727 17.4176C47.7667 17.1378 47.7865 16.798 47.7865 16.3983C47.7865 15.9786 47.7865 15.5089 47.7865 14.9893Z" fill="#1A1A1A"/>
<path d="M63.5259 15.9186C63.9027 15.9186 64.1407 15.9886 64.2399 16.1285C64.3589 16.2484 64.4184 16.5082 64.4184 16.9079C64.4184 17.6074 64.2101 18.197 63.7936 18.6767C63.3771 19.1563 62.911 19.5261 62.3953 19.7859C61.7606 20.1056 60.9177 20.2655 59.8665 20.2655C58.5376 20.2655 57.4468 19.9258 56.5939 19.2463C55.7411 18.5467 55.1163 17.6974 54.7196 16.6981C54.2833 15.6188 54.0651 14.4397 54.0651 13.1606C54.0651 11.5617 54.3824 10.1827 55.0171 9.02355C55.6518 7.86438 56.4948 7.005 57.5459 6.4454C58.2996 6.04568 59.1227 5.84582 60.0153 5.84582C60.8285 5.84582 61.5425 6.0157 62.1573 6.35546C62.7722 6.69522 63.2482 7.11492 63.5854 7.61456C63.9225 8.1142 64.0911 8.63383 64.0911 9.17345C64.0911 9.79301 63.9523 10.1028 63.6746 10.1028C63.6746 10.1028 63.6647 10.1028 63.6449 10.1028H61.2053C60.9276 10.1028 60.7392 10.0428 60.64 9.92291C60.5409 9.803 60.4913 9.60314 60.4913 9.32334C60.4913 7.9843 60.2136 7.31477 59.6583 7.31477C59.3012 7.31477 58.9541 7.57459 58.617 8.09422C58.2996 8.59386 58.141 9.49322 58.141 10.7923C58.141 11.7516 58.4186 12.2313 58.974 12.2313H62.5738C63.2879 12.2313 63.6449 12.4911 63.6449 13.0107C63.6449 13.3305 63.5556 13.5503 63.3771 13.6702C63.2184 13.7702 62.9705 13.8201 62.6333 13.8201H58.7955C58.5376 13.8201 58.3591 13.96 58.26 14.2398C58.1806 14.5196 58.141 14.8194 58.141 15.1392C58.141 16.5382 58.26 17.5275 58.498 18.1071C58.736 18.6867 59.1128 18.9764 59.6285 18.9764C60.2235 18.9764 60.521 18.4568 60.521 17.4176C60.521 16.4183 60.7789 15.9186 61.2946 15.9186H63.5259Z" fill="#1A1A1A"/>
<path d="M74.2622 6.23555C74.52 6.23555 74.6886 6.27552 74.7679 6.35546C74.8869 6.47537 74.9564 6.59529 74.9762 6.7152C75.0159 6.87509 75.0059 6.98501 74.9464 7.04497C74.8671 7.2848 74.7481 8.04425 74.5894 9.32334C74.4903 10.3226 74.401 11.0621 74.3217 11.5418C74.2423 12.0014 74.1134 12.2313 73.9349 12.2313C73.4787 12.2313 73.1316 11.4118 72.8936 9.77302C72.6556 8.15418 72.0904 7.34475 71.1978 7.34475C70.8607 7.34475 70.6921 7.90435 70.6921 9.02355V19.1563C70.6921 19.636 70.464 19.8758 70.0078 19.8758H67.5385C67.122 19.8758 66.9137 19.626 66.9137 19.1263V6.98501C66.9137 6.70521 66.9633 6.51535 67.0625 6.41542C67.1815 6.2955 67.3897 6.23555 67.6872 6.23555H74.2622Z" fill="#1A1A1A"/>
<path d="M79.976 14.552V7.064H80.352V14.552H79.976Z" fill="black"/>
<path d="M83.8801 13.032C83.4748 13.032 83.1121 12.9413 82.7921 12.76C82.4775 12.5787 82.2268 12.328 82.0401 12.008C81.8588 11.688 81.7681 11.3227 81.7681 10.912C81.7681 10.496 81.8588 10.128 82.0401 9.808C82.2268 9.488 82.4775 9.24 82.7921 9.064C83.1121 8.88267 83.4748 8.792 83.8801 8.792C84.2161 8.792 84.5201 8.856 84.7921 8.984C85.0695 9.112 85.2935 9.304 85.4641 9.56L85.1681 9.776C85.0188 9.56267 84.8321 9.40533 84.6081 9.304C84.3841 9.20267 84.1415 9.152 83.8801 9.152C83.5548 9.152 83.2615 9.22667 83.0001 9.376C82.7441 9.52 82.5415 9.72533 82.3921 9.992C82.2481 10.2533 82.1761 10.56 82.1761 10.912C82.1761 11.264 82.2481 11.5733 82.3921 11.84C82.5415 12.1013 82.7441 12.3067 83.0001 12.456C83.2615 12.6 83.5548 12.672 83.8801 12.672C84.1415 12.672 84.3841 12.6213 84.6081 12.52C84.8321 12.4187 85.0188 12.2613 85.1681 12.048L85.4641 12.264C85.2935 12.52 85.0695 12.712 84.7921 12.84C84.5201 12.968 84.2161 13.032 83.8801 13.032Z" fill="black"/>
<path d="M87.3115 13V9.064L87.4235 9.184H85.6795V8.824H89.3435V9.184H87.5995L87.7115 9.064V13H87.3115Z" fill="black"/>
<path d="M92.3039 13.032C91.9359 13.032 91.6026 12.9467 91.3039 12.776C91.0106 12.6053 90.7759 12.3627 90.5999 12.048C90.4293 11.728 90.3439 11.3493 90.3439 10.912C90.3439 10.4747 90.4293 10.0987 90.5999 9.784C90.7759 9.464 91.0106 9.21867 91.3039 9.048C91.6026 8.87733 91.9359 8.792 92.3039 8.792C92.6986 8.792 93.0506 8.88267 93.3599 9.064C93.6746 9.24 93.9199 9.488 94.0959 9.808C94.2773 10.128 94.3679 10.496 94.3679 10.912C94.3679 11.328 94.2773 11.696 94.0959 12.016C93.9199 12.336 93.6746 12.5867 93.3599 12.768C93.0506 12.944 92.6986 13.032 92.3039 13.032ZM90.2079 14.552V8.824H90.5919V10.192L90.5279 10.92L90.6079 11.648V14.552H90.2079ZM92.2799 12.672C92.5999 12.672 92.8879 12.6 93.1439 12.456C93.3999 12.3067 93.5999 12.0987 93.7439 11.832C93.8933 11.5653 93.9679 11.2587 93.9679 10.912C93.9679 10.56 93.8933 10.2533 93.7439 9.992C93.5999 9.72533 93.3999 9.52 93.1439 9.376C92.8879 9.22667 92.5999 9.152 92.2799 9.152C91.9599 9.152 91.6719 9.22667 91.4159 9.376C91.1653 9.52 90.9653 9.72533 90.8159 9.992C90.6719 10.2533 90.5999 10.56 90.5999 10.912C90.5999 11.2587 90.6719 11.5653 90.8159 11.832C90.9653 12.0987 91.1653 12.3067 91.4159 12.456C91.6719 12.6 91.9599 12.672 92.2799 12.672Z" fill="black"/>
<path d="M97.3327 13.032C96.9327 13.032 96.5754 12.9413 96.2607 12.76C95.9514 12.5787 95.7034 12.328 95.5167 12.008C95.3354 11.688 95.2447 11.3227 95.2447 10.912C95.2447 10.496 95.3354 10.1307 95.5167 9.816C95.7034 9.496 95.9514 9.24533 96.2607 9.064C96.5754 8.88267 96.9327 8.792 97.3327 8.792C97.7327 8.792 98.09 8.88267 98.4047 9.064C98.7194 9.24533 98.9674 9.496 99.1487 9.816C99.33 10.1307 99.4207 10.496 99.4207 10.912C99.4207 11.3227 99.33 11.688 99.1487 12.008C98.9674 12.328 98.7194 12.5787 98.4047 12.76C98.09 12.9413 97.7327 13.032 97.3327 13.032ZM97.3327 12.672C97.6527 12.672 97.9407 12.6 98.1967 12.456C98.4527 12.3067 98.6527 12.0987 98.7967 11.832C98.9407 11.5653 99.0127 11.2587 99.0127 10.912C99.0127 10.56 98.9407 10.2533 98.7967 9.992C98.6527 9.72533 98.4527 9.52 98.1967 9.376C97.9407 9.22667 97.6527 9.152 97.3327 9.152C97.0127 9.152 96.7247 9.22667 96.4687 9.376C96.218 9.52 96.018 9.72533 95.8687 9.992C95.7247 10.2533 95.6527 10.56 95.6527 10.912C95.6527 11.2587 95.7247 11.5653 95.8687 11.832C96.018 12.0987 96.218 12.3067 96.4687 12.456C96.7247 12.6 97.0127 12.672 97.3327 12.672Z" fill="black"/>
<path d="M100.723 13V8.824H101.123V12.384L104.099 8.824H104.451V13H104.051V9.44L101.075 13H100.723Z" fill="black"/>
<path d="M106.937 13V9.064L107.049 9.184H105.304V8.824H108.968V9.184H107.225L107.337 9.064V13H106.937Z" fill="black"/>
<path d="M111.358 13.032C110.936 13.032 110.563 12.9413 110.238 12.76C109.918 12.5787 109.664 12.328 109.478 12.008C109.296 11.688 109.206 11.3227 109.206 10.912C109.206 10.496 109.291 10.1307 109.462 9.816C109.638 9.496 109.878 9.24533 110.182 9.064C110.486 8.88267 110.827 8.792 111.206 8.792C111.584 8.792 111.923 8.88 112.222 9.056C112.526 9.232 112.763 9.48 112.934 9.8C113.11 10.1147 113.198 10.48 113.198 10.896C113.198 10.912 113.195 10.9307 113.19 10.952C113.19 10.968 113.19 10.9867 113.19 11.008H109.502V10.696H112.974L112.814 10.848C112.819 10.5227 112.75 10.232 112.606 9.976C112.467 9.71467 112.278 9.512 112.038 9.368C111.798 9.21867 111.52 9.144 111.206 9.144C110.896 9.144 110.619 9.21867 110.374 9.368C110.134 9.512 109.944 9.71467 109.806 9.976C109.667 10.232 109.598 10.5253 109.598 10.856V10.928C109.598 11.2693 109.672 11.5733 109.822 11.84C109.976 12.1013 110.187 12.3067 110.454 12.456C110.72 12.6 111.024 12.672 111.366 12.672C111.632 12.672 111.88 12.624 112.11 12.528C112.344 12.432 112.542 12.2853 112.702 12.088L112.934 12.352C112.752 12.576 112.523 12.7467 112.246 12.864C111.974 12.976 111.678 13.032 111.358 13.032Z" fill="black"/>
<path d="M113.923 13.04C113.87 13.04 113.814 13.0347 113.755 13.024C113.702 13.0133 113.643 13 113.579 12.984L113.619 12.64C113.651 12.6453 113.683 12.6533 113.715 12.664C113.752 12.6693 113.784 12.672 113.811 12.672C113.992 12.672 114.136 12.6053 114.243 12.472C114.35 12.3333 114.43 12.1493 114.483 11.92C114.542 11.6907 114.582 11.432 114.603 11.144C114.63 10.856 114.651 10.5627 114.667 10.264L114.739 8.824H117.667V13H117.267V9.056L117.379 9.184H114.995L115.099 9.048L115.035 10.296C115.014 10.6587 114.984 11.0053 114.947 11.336C114.91 11.6667 114.854 11.96 114.779 12.216C114.704 12.472 114.598 12.6747 114.459 12.824C114.32 12.968 114.142 13.04 113.923 13.04Z" fill="black"/>
<path d="M120.971 13.016L119.395 13V8.824H119.795V10.328L121.067 10.344C121.585 10.3493 121.979 10.464 122.251 10.688C122.523 10.9067 122.659 11.2293 122.659 11.656C122.659 12.0987 122.515 12.4373 122.227 12.672C121.939 12.9067 121.521 13.0213 120.971 13.016ZM120.963 12.696C121.39 12.7013 121.71 12.616 121.923 12.44C122.142 12.264 122.251 12.0027 122.251 11.656C122.251 11.32 122.145 11.0693 121.931 10.904C121.718 10.7387 121.395 10.6533 120.963 10.648L119.795 10.64V12.68L120.963 12.696Z" fill="black"/>
<path d="M123.817 13V8.824H124.217V10.728H127.049V8.824H127.449V13H127.049V11.08H124.217V13H123.817Z" fill="black"/>
<path d="M131.785 13V12.048L131.768 11.904V10.336C131.768 9.94667 131.662 9.65067 131.449 9.448C131.241 9.24533 130.934 9.144 130.529 9.144C130.241 9.144 129.971 9.19467 129.721 9.296C129.475 9.392 129.265 9.51733 129.089 9.672L128.889 9.384C129.097 9.19733 129.347 9.05333 129.641 8.952C129.934 8.84533 130.241 8.792 130.561 8.792C131.078 8.792 131.475 8.92267 131.753 9.184C132.03 9.44533 132.169 9.83467 132.169 10.352V13H131.785ZM130.281 13.032C129.971 13.032 129.702 12.984 129.473 12.888C129.249 12.7867 129.075 12.6453 128.952 12.464C128.835 12.2827 128.777 12.0747 128.777 11.84C128.777 11.6267 128.825 11.4347 128.921 11.264C129.022 11.088 129.187 10.9467 129.417 10.84C129.646 10.728 129.953 10.672 130.337 10.672H131.872V10.984H130.344C129.912 10.984 129.608 11.064 129.432 11.224C129.262 11.384 129.176 11.584 129.176 11.824C129.176 12.0907 129.278 12.304 129.48 12.464C129.683 12.624 129.969 12.704 130.337 12.704C130.689 12.704 130.985 12.624 131.225 12.464C131.47 12.304 131.651 12.072 131.768 11.768L131.88 12.04C131.768 12.344 131.577 12.5867 131.305 12.768C131.038 12.944 130.697 13.032 130.281 13.032Z" fill="black"/>
<path d="M136.506 13V11.464L136.594 11.56H135.114C134.591 11.56 134.183 11.448 133.89 11.224C133.602 10.9947 133.458 10.6587 133.458 10.216C133.458 9.74667 133.615 9.39733 133.93 9.168C134.244 8.93867 134.66 8.824 135.178 8.824H136.874V13H136.506ZM133.434 13L134.594 11.392H135.018L133.874 13H133.434ZM136.506 11.352V9.056L136.594 9.176H135.202C134.775 9.176 134.444 9.25867 134.21 9.424C133.975 9.58933 133.858 9.85867 133.858 10.232C133.858 10.9147 134.29 11.256 135.154 11.256H136.594L136.506 11.352Z" fill="black"/>
<path d="M79.976 21.552V14.064H80.352V21.552H79.976Z" fill="black"/>
<path d="M85.2721 20L83.4801 17.912L83.8161 17.72L85.7521 20H85.2721ZM82.1921 20V15.824H82.5921V20H82.1921ZM82.4641 18.064V17.72H83.7761V18.064H82.4641ZM83.8401 17.952L83.4721 17.888L85.1841 15.824H85.6241L83.8401 17.952Z" fill="black"/>
<path d="M88.2624 20.032C87.8624 20.032 87.505 19.9413 87.1904 19.76C86.881 19.5787 86.633 19.328 86.4464 19.008C86.265 18.688 86.1744 18.3227 86.1744 17.912C86.1744 17.496 86.265 17.1307 86.4464 16.816C86.633 16.496 86.881 16.2453 87.1904 16.064C87.505 15.8827 87.8624 15.792 88.2624 15.792C88.6624 15.792 89.0197 15.8827 89.3344 16.064C89.649 16.2453 89.897 16.496 90.0784 16.816C90.2597 17.1307 90.3504 17.496 90.3504 17.912C90.3504 18.3227 90.2597 18.688 90.0784 19.008C89.897 19.328 89.649 19.5787 89.3344 19.76C89.0197 19.9413 88.6624 20.032 88.2624 20.032ZM88.2624 19.672C88.5824 19.672 88.8704 19.6 89.1264 19.456C89.3824 19.3067 89.5824 19.0987 89.7264 18.832C89.8704 18.5653 89.9424 18.2587 89.9424 17.912C89.9424 17.56 89.8704 17.2533 89.7264 16.992C89.5824 16.7253 89.3824 16.52 89.1264 16.376C88.8704 16.2267 88.5824 16.152 88.2624 16.152C87.9424 16.152 87.6544 16.2267 87.3984 16.376C87.1477 16.52 86.9477 16.7253 86.7984 16.992C86.6544 17.2533 86.5824 17.56 86.5824 17.912C86.5824 18.2587 86.6544 18.5653 86.7984 18.832C86.9477 19.0987 87.1477 19.3067 87.3984 19.456C87.6544 19.6 87.9424 19.672 88.2624 19.672Z" fill="black"/>
<path d="M91.6531 20V15.824H92.0451L94.0211 19.128H93.8451L95.8291 15.824H96.1971V20H95.8291V16.304L95.9091 16.336L94.0131 19.464H93.8291L91.9251 16.312L92.0211 16.296V20H91.6531Z" fill="black"/>
<path d="M97.9265 20V15.824H101.575V20H101.174V16.064L101.286 16.184H98.2145L98.3265 16.064V20H97.9265Z" fill="black"/>
<path d="M105.91 20V19.048L105.894 18.904V17.336C105.894 16.9467 105.787 16.6507 105.574 16.448C105.366 16.2453 105.059 16.144 104.654 16.144C104.366 16.144 104.096 16.1947 103.845 16.296C103.6 16.392 103.39 16.5173 103.214 16.672L103.013 16.384C103.221 16.1973 103.472 16.0533 103.766 15.952C104.059 15.8453 104.366 15.792 104.686 15.792C105.203 15.792 105.6 15.9227 105.878 16.184C106.155 16.4453 106.294 16.8347 106.294 17.352V20H105.91ZM104.406 20.032C104.096 20.032 103.827 19.984 103.598 19.888C103.374 19.7867 103.2 19.6453 103.077 19.464C102.96 19.2827 102.901 19.0747 102.901 18.84C102.901 18.6267 102.95 18.4347 103.046 18.264C103.147 18.088 103.312 17.9467 103.542 17.84C103.771 17.728 104.078 17.672 104.462 17.672H105.997V17.984H104.469C104.037 17.984 103.734 18.064 103.558 18.224C103.387 18.384 103.301 18.584 103.301 18.824C103.301 19.0907 103.403 19.304 103.605 19.464C103.808 19.624 104.094 19.704 104.462 19.704C104.814 19.704 105.11 19.624 105.35 19.464C105.595 19.304 105.776 19.072 105.894 18.768L106.006 19.04C105.894 19.344 105.701 19.5867 105.429 19.768C105.163 19.944 104.822 20.032 104.406 20.032Z" fill="black"/>
<path d="M107.919 20V15.824H108.319V17.728H111.151V15.824H111.551V20H111.151V18.08H108.319V20H107.919Z" fill="black"/>
<path d="M113.278 20V15.824H113.678V19.384L116.654 15.824H117.006V20H116.606V16.44L113.63 20H113.278Z" fill="black"/>
<path d="M121.443 20V18.464L121.531 18.56H120.051C119.529 18.56 119.121 18.448 118.827 18.224C118.539 17.9947 118.395 17.6587 118.395 17.216C118.395 16.7467 118.553 16.3973 118.867 16.168C119.182 15.9387 119.598 15.824 120.115 15.824H121.811V20H121.443ZM118.371 20L119.531 18.392H119.955L118.811 20H118.371ZM121.443 18.352V16.056L121.531 16.176H120.139C119.713 16.176 119.382 16.2587 119.147 16.424C118.913 16.5893 118.795 16.8587 118.795 17.232C118.795 17.9147 119.227 18.256 120.091 18.256H121.531L121.443 18.352Z" fill="black"/>
</svg>
