<svg xmlns="http://www.w3.org/2000/svg">
	<symbol id="phone" viewBox="0 0 16 16">
		<path fill-rule="evenodd" clip-rule="evenodd" d="M1.88541 0.510194C2.06038 0.335474 2.27048 0.199938 2.50179 0.112565C2.7331 0.0251932 2.98033 -0.0120195 3.22711 0.00339337C3.47389 0.0188063 3.71457 0.0864929 3.93321 0.201968C4.15185 0.317442 4.34346 0.478068 4.49533 0.673201L6.29027 2.97931C6.61926 3.40233 6.73526 3.95335 6.60526 4.47338L6.05828 6.66348C6.0302 6.77692 6.03182 6.89569 6.063 7.00832C6.09418 7.12096 6.15386 7.22365 6.23628 7.30651L8.6932 9.76362C8.77614 9.84621 8.879 9.90599 8.99182 9.93718C9.10464 9.96836 9.22359 9.96989 9.33718 9.94163L11.5261 9.3946C11.7827 9.33081 12.0505 9.32601 12.3092 9.38057C12.568 9.43513 12.811 9.54763 13.0201 9.70962L15.326 11.5037C16.155 12.1487 16.231 13.3738 15.489 14.1148L14.455 15.1489C13.715 15.8889 12.6091 16.2139 11.5781 15.8509C8.93886 14.9234 6.54281 13.4125 4.56833 11.4307C2.58676 9.45635 1.07599 7.06046 0.148466 4.42137C-0.213522 3.39133 0.111467 2.28428 0.851444 1.54424L1.88541 0.510194Z"/>
	</symbol>
	<symbol id="whatsapp" viewBox="0 0 60 60">
		<path d="M51.2343 8.72268C48.4716 5.9458 45.1812 3.74437 41.5549 2.2468C37.9285 0.749237 34.0389 -0.014478 30.113 0.000207843C13.6627 0.000207843 0.256153 13.3427 0.241085 29.7226C0.241085 34.9688 1.61979 40.0726 4.22275 44.5913L0 60L15.8363 55.8675C20.2153 58.2459 25.1246 59.4903 30.113 59.4863H30.1281C46.5821 59.4863 59.9849 46.1438 60 29.7489C60.0033 25.8416 59.2302 21.9723 57.7252 18.3637C56.2201 14.7551 54.0167 11.4785 51.2343 8.72268ZM30.113 54.4538C25.6649 54.4503 21.2992 53.2589 17.4711 51.0038L16.567 50.4638L7.17227 52.9163L9.68106 43.7926L9.09342 42.8513C6.6065 38.915 5.29124 34.3577 5.3001 29.7076C5.3001 16.1102 16.439 5.01769 30.1281 5.01769C33.3893 5.01187 36.6194 5.64872 39.6322 6.89153C42.645 8.13434 45.3808 9.95852 47.6821 12.2589C49.9908 14.5507 51.8212 17.2747 53.0676 20.2739C54.3141 23.273 54.9521 26.4881 54.9447 29.7339C54.9297 43.3801 43.7908 54.4538 30.113 54.4538ZM43.7305 35.9513C42.9884 35.5801 39.3232 33.7838 38.6338 33.5288C37.9483 33.2851 37.4473 33.1576 36.9576 33.9001C36.4565 34.6388 35.0251 36.3226 34.5957 36.8063C34.1662 37.3051 33.7217 37.3613 32.9759 36.9938C32.2338 36.6188 29.8267 35.8388 26.9789 33.3001C24.7564 31.3314 23.2685 28.8939 22.824 28.1551C22.3945 27.4126 22.7825 27.0151 23.1554 26.6439C23.4832 26.3139 23.8975 25.7739 24.2705 25.3464C24.6472 24.9189 24.7715 24.6039 25.0163 24.1089C25.2612 23.6064 25.1444 23.1789 24.9598 22.8076C24.7715 22.4364 23.2835 18.7726 22.6544 17.2951C22.0517 15.8364 21.4377 16.0389 20.9781 16.0202C20.5487 15.9939 20.0477 15.9939 19.5467 15.9939C19.1684 16.0035 18.7962 16.0907 18.4533 16.2501C18.1104 16.4095 17.8042 16.6376 17.554 16.9201C16.8684 17.6626 14.951 19.4589 14.951 23.1226C14.951 26.7864 17.6256 30.3076 18.0023 30.8064C18.3714 31.3051 23.2534 38.8013 30.7458 42.0263C32.5163 42.7951 33.9101 43.2488 34.9987 43.5938C36.788 44.1638 38.4041 44.0776 39.6924 43.8938C41.1238 43.6763 44.1035 42.0938 44.7325 40.3576C45.3503 38.6176 45.3503 37.1326 45.162 36.8213C44.9774 36.5063 44.4764 36.3226 43.7305 35.9513Z"/>
	</symbol>
	<symbol viewBox="0 0 32 32" id="telegram">
		<path fill="currentColor" d="M16 .5C7.437.5.5 7.438.5 16S7.438 31.5 16 31.5c8.563 0 15.5-6.938 15.5-15.5S24.562.5 16 .5m7.613 10.619l-2.544 11.988c-.188.85-.694 1.056-1.4.656l-3.875-2.856l-1.869 1.8c-.206.206-.381.381-.781.381l.275-3.944l7.181-6.488c.313-.275-.069-.431-.482-.156l-8.875 5.587l-3.825-1.194c-.831-.262-.85-.831.175-1.231l14.944-5.763c.694-.25 1.3.169 1.075 1.219z"/>
	</symbol>
	<symbol viewBox="0 0 70 100" id="lightning">
		<path d="M55.3187 0.424999C55.9304 0.779614 56.4038 1.33119 56.6615 1.98961C56.9192 2.64803 56.946 3.37438 56.7375 4.05L45.4812 40.625H66.25C66.8603 40.6248 67.4574 40.8032 67.9675 41.1384C68.4775 41.4736 68.8783 41.9509 69.1202 42.5112C69.3622 43.0715 69.4347 43.6905 69.329 44.2916C69.2232 44.8927 68.9437 45.4497 68.525 45.8937L18.525 99.0188C18.0412 99.5332 17.3974 99.8686 16.6986 99.9703C15.9997 100.072 15.2871 99.9341 14.6767 99.5789C14.0663 99.2237 13.5942 98.6722 13.3374 98.0143C13.0806 97.3565 13.0542 96.631 13.2625 95.9562L24.5187 59.375H3.75C3.13965 59.3752 2.5426 59.1967 2.03253 58.8616C1.52247 58.5264 1.12173 58.0491 0.879777 57.4888C0.637827 56.9285 0.565262 56.3095 0.671037 55.7084C0.776813 55.1073 1.0563 54.5503 1.475 54.1062L51.475 0.981249C51.9582 0.467494 52.601 0.132303 53.2988 0.0301775C53.9967 -0.0719479 54.7086 0.0649982 55.3187 0.418749V0.424999Z" />
	</symbol>

</svg>